<svg xmlns="http://www.w3.org/2000/svg" width="28" height="28" viewBox="0 0 28 28">
  <path fill="#2B2B2B" d="M2.652,6.563C3.577,5.746 4.793,5.25 6.125,5.25H21.875C23.206,5.25 24.422,5.746 25.348,6.563C25.133,4.836 23.66,3.5 21.875,3.5H6.125C4.34,3.5 2.867,4.836 2.652,6.563Z"/>
  <path fill="#2B2B2B" d="M2.652,10.063C3.577,9.246 4.793,8.75 6.125,8.75H21.875C23.206,8.75 24.422,9.246 25.348,10.063C25.133,8.336 23.66,7 21.875,7H6.125C4.34,7 2.867,8.336 2.652,10.063Z"/>
  <path fill="#2B2B2B" d="M6.125,10.5C4.192,10.5 2.625,12.067 2.625,14V21C2.625,22.933 4.192,24.5 6.125,24.5H21.875C23.808,24.5 25.375,22.933 25.375,21V14C25.375,12.067 23.808,10.5 21.875,10.5H17.5C17.017,10.5 16.625,10.892 16.625,11.375C16.625,12.825 15.45,14 14,14C12.55,14 11.375,12.825 11.375,11.375C11.375,10.892 10.983,10.5 10.5,10.5H6.125Z"/>
</svg>