<svg xmlns="http://www.w3.org/2000/svg" width="32" height="32" viewBox="0 0 32 32">
  <defs>
    <linearGradient id="grad" x1="16" y1="5.333" x2="16" y2="26.667" gradientUnits="userSpaceOnUse">
      <stop offset="0" stop-color="#A652FF"/>
      <stop offset="1" stop-color="#4E1090"/>
    </linearGradient>
  </defs>
  <path fill="url(#grad)" d="M1.333,22.667V17.333H12.267L4,10.8V14.667H1.333V6.667H2.667L17.333,14.733V5.333H24L30.667,13.333V22.667H27.333C27.333,23.778 26.944,24.722 26.167,25.5C25.389,26.278 24.444,26.667 23.333,26.667C22.222,26.667 21.278,26.278 20.5,25.5C19.722,24.722 19.333,23.778 19.333,22.667H12C12,23.778 11.611,24.722 10.833,25.5C10.056,26.278 9.111,26.667 8,26.667C6.889,26.667 5.944,26.278 5.167,25.5C4.389,24.722 4,23.778 4,22.667H1.333ZM9.433,24.1C9.811,23.722 10,23.244 10,22.667C10,22.089 9.811,21.611 9.433,21.233C9.055,20.855 8.578,20.667 8,20.667C7.422,20.667 6.944,20.855 6.567,21.233C6.189,21.611 6,22.089 6,22.667C6,23.244 6.189,23.722 6.567,24.1C6.944,24.478 7.422,24.667 8,24.667C8.578,24.667 9.055,24.478 9.433,24.1ZM24.767,24.1C25.144,23.722 25.333,23.244 25.333,22.667C25.333,22.089 25.144,21.611 24.767,21.233C24.389,20.855 23.911,20.667 23.333,20.667C22.756,20.667 22.278,20.855 21.9,21.233C21.522,21.611 21.333,22.089 21.333,22.667C21.333,23.244 21.522,23.722 21.9,24.1C22.278,24.478 22.756,24.667 23.333,24.667C23.911,24.667 24.389,24.478 24.767,24.1ZM20,13.333H27.2L22.733,8H20V13.333Z"/>
</svg>