<svg xmlns="http://www.w3.org/2000/svg" width="29" height="32" viewBox="0 0 29 32">
  <defs>
    <linearGradient id="grad1" x1="14.061" y1="20.734" x2="14.061" y2="32" gradientUnits="userSpaceOnUse">
      <stop offset="0" stop-color="#A652FF"/>
      <stop offset="1" stop-color="#4E1090"/>
    </linearGradient>
    <linearGradient id="grad2" x1="14.061" y1="0" x2="14.061" y2="27.152" gradientUnits="userSpaceOnUse">
      <stop offset="0" stop-color="#A652FF"/>
      <stop offset="1" stop-color="#4E1090"/>
    </linearGradient>
  </defs>
  <path fill="url(#grad1)" d="M25.359,22.62C23.82,21.779 21.704,21.133 19.237,20.751C18.472,20.635 17.863,21.361 18.141,22.059C18.27,22.383 18.568,22.615 18.923,22.67C21.125,23.011 23.066,23.594 24.374,24.312C25.485,24.911 26.113,25.595 26.113,26.184C26.113,27.803 21.528,30.061 14.061,30.061C6.593,30.061 2.009,27.803 2.009,26.184C2.009,25.595 2.636,24.911 3.747,24.307C5.061,23.589 6.996,23.007 9.198,22.665C9.965,22.568 10.336,21.707 9.866,21.114C9.635,20.823 9.253,20.683 8.88,20.751C6.413,21.133 4.296,21.779 2.757,22.62C0.478,23.866 0,25.246 0,26.184C0,29.962 7.245,32 14.061,32C20.876,32 28.121,29.962 28.121,26.184C28.121,25.246 27.643,23.866 25.359,22.62Z"/>
  <path fill="url(#grad2)" d="M18.181,1.05C12.686,-1.934 5.818,1.797 5.818,7.766C5.822,11.449 8.577,14.623 12.412,15.363V25.598C12.412,26.153 12.726,26.664 13.236,26.941C14.335,27.538 15.709,26.792 15.709,25.598V15.363C16.579,15.196 17.414,14.898 18.182,14.481C23.677,11.496 23.677,4.035 18.181,1.05Z"/>
</svg>