<svg xmlns="http://www.w3.org/2000/svg" width="32" height="28" viewBox="0 0 32 28">
  <defs>
    <linearGradient id="grad" x1="16" y1="0" x2="16" y2="28" gradientUnits="userSpaceOnUse">
      <stop offset="0" stop-color="#A652FF"/>
      <stop offset="1" stop-color="#4E1090"/>
    </linearGradient>
  </defs>
  <path fill="url(#grad)" d="M23.942,0.195C25.146,-0.182 26.428,-0.008 27.526,0.683C28.623,1.374 29.453,2.529 29.846,3.912L29.928,4.233L31.614,11.591C31.827,12.518 31.732,13.506 31.348,14.355C30.964,15.204 30.32,15.852 29.545,16.17L29.31,16.254L25.482,17.454V20.386C25.482,20.852 25.629,21.303 25.894,21.651C26.16,22 26.525,22.222 26.922,22.277L27.113,22.29H28.742C28.742,21.805 28.901,21.338 29.186,20.985C29.471,20.632 29.861,20.42 30.275,20.391C30.69,20.363 31.098,20.52 31.417,20.832C31.735,21.143 31.94,21.585 31.989,22.067L32,22.29V26.098C32,26.583 31.84,27.05 31.556,27.403C31.271,27.756 30.881,27.968 30.466,27.997C30.052,28.025 29.644,27.868 29.325,27.556C29.007,27.245 28.802,26.803 28.753,26.321L28.742,26.098H27.113C25.866,26.098 24.667,25.541 23.76,24.542C22.853,23.542 22.307,22.175 22.233,20.721L22.225,20.386V18.474L11.615,21.795C10.976,21.995 10.299,21.963 9.676,21.703C9.052,21.442 8.512,20.966 8.125,20.338L7.977,20.073L3.065,10.504C2.88,10.143 2.766,9.739 2.73,9.321C2.694,8.902 2.737,8.48 2.857,8.083C2.977,7.687 3.17,7.326 3.423,7.027C3.676,6.728 3.982,6.497 4.32,6.353L4.528,6.277L23.942,0.195ZM3.005,12.134L5.652,17.37C5.861,17.804 5.917,18.316 5.806,18.797C5.696,19.278 5.429,19.689 5.062,19.943C4.696,20.196 4.259,20.272 3.845,20.153C3.431,20.034 3.073,19.731 2.849,19.308L0.201,14.072C-0.002,13.638 -0.054,13.129 0.058,12.652C0.17,12.175 0.436,11.767 0.8,11.515C1.165,11.264 1.599,11.188 2.01,11.303C2.422,11.419 2.779,11.716 3.005,12.134Z"/>
</svg>