<svg xmlns="http://www.w3.org/2000/svg" width="28" height="28" viewBox="0 0 28 28">
  <defs>
    <linearGradient id="grad" x1="14" y1="0.28" x2="14" y2="27.708" gradientUnits="userSpaceOnUse">
      <stop offset="0" stop-color="#A652FF"/>
      <stop offset="1" stop-color="#4E1090"/>
    </linearGradient>
  </defs>
  <path fill="url(#grad)" d="M28,1.447C28,1.137 27.877,0.841 27.658,0.622C27.44,0.403 27.143,0.28 26.833,0.28H12.343C10.757,0.28 10.01,1.762 10.01,3.162C10.018,8.347 9.675,13.528 8.983,18.667C8.972,18.734 8.939,18.795 8.887,18.84C8.836,18.884 8.771,18.91 8.703,18.912H5.203C2.87,18.912 2.613,21.327 2.473,22.762C2.333,25.06 2.018,25.375 1.167,25.375C0.857,25.375 0.561,25.498 0.342,25.717C0.123,25.935 0,26.232 0,26.542C0,26.851 0.123,27.148 0.342,27.367C0.561,27.585 0.857,27.708 1.167,27.708H14.583C17.36,27.708 17.757,24.955 17.99,23.322C18.188,21.945 18.34,21.292 18.667,21.292H19.145C19.207,21.291 19.267,21.31 19.317,21.345C19.368,21.381 19.405,21.432 19.425,21.49C19.495,21.712 19.565,22.015 19.612,22.237C19.845,23.333 20.265,25.375 22.75,25.375C27.498,25.375 28,11.912 28,6.148V1.447ZM14.07,15.75C13.838,15.75 13.615,15.658 13.451,15.494C13.287,15.33 13.195,15.107 13.195,14.875C13.195,14.643 13.287,14.42 13.451,14.256C13.615,14.092 13.838,14 14.07,14H21.07C21.302,14 21.525,14.092 21.689,14.256C21.853,14.42 21.945,14.643 21.945,14.875C21.945,15.107 21.853,15.33 21.689,15.494C21.525,15.658 21.302,15.75 21.07,15.75H14.07ZM13.778,5.542C13.778,5.31 13.87,5.087 14.035,4.923C14.199,4.759 14.421,4.667 14.653,4.667H16.987C17.219,4.667 17.441,4.759 17.605,4.923C17.77,5.087 17.862,5.31 17.862,5.542C17.862,5.774 17.77,5.996 17.605,6.16C17.441,6.325 17.219,6.417 16.987,6.417H14.653C14.421,6.417 14.199,6.325 14.035,6.16C13.87,5.996 13.778,5.774 13.778,5.542ZM21.653,11.083H14.945C14.713,11.083 14.49,10.991 14.326,10.827C14.162,10.663 14.07,10.44 14.07,10.208C14.07,9.976 14.162,9.754 14.326,9.59C14.49,9.426 14.713,9.333 14.945,9.333H21.653C21.885,9.333 22.108,9.426 22.272,9.59C22.436,9.754 22.528,9.976 22.528,10.208C22.528,10.44 22.436,10.663 22.272,10.827C22.108,10.991 21.885,11.083 21.653,11.083ZM15.668,22.983C15.377,25.048 15.143,25.375 14.572,25.375H4.795C4.75,25.373 4.706,25.361 4.666,25.341C4.626,25.321 4.59,25.293 4.562,25.258C4.545,25.22 4.536,25.178 4.536,25.136C4.536,25.094 4.545,25.052 4.562,25.013C4.721,24.366 4.826,23.706 4.877,23.042C4.889,22.448 4.999,21.861 5.203,21.303H15.703C15.747,21.304 15.791,21.314 15.83,21.334C15.869,21.353 15.904,21.382 15.931,21.417C15.958,21.451 15.976,21.492 15.986,21.535C15.995,21.578 15.994,21.622 15.983,21.665C15.797,22.167 15.727,22.575 15.668,22.983Z"/>
</svg>