<svg xmlns="http://www.w3.org/2000/svg" width="32" height="21" viewBox="0 0 32 21">
  <defs>
    <linearGradient id="grad" x1="16" y1="0" x2="16" y2="21" gradientUnits="userSpaceOnUse">
      <stop offset="0" stop-color="#A652FF"/>
      <stop offset="1" stop-color="#4E1090"/>
    </linearGradient>
  </defs>
  <path fill="url(#grad)" d="M31.855,19.259L22.525,2.333H30.809C31.106,2.34 31.394,2.231 31.614,2.029C31.835,1.826 31.972,1.546 31.997,1.244C32.008,1.084 31.986,0.924 31.933,0.774C31.881,0.623 31.798,0.485 31.691,0.369C31.584,0.252 31.454,0.159 31.31,0.096C31.167,0.032 31.011,-0 30.855,0H1.185C0.89,-0.005 0.604,0.105 0.384,0.307C0.165,0.509 0.029,0.789 0.004,1.089C-0.006,1.249 0.015,1.409 0.068,1.56C0.121,1.71 0.203,1.848 0.311,1.965C0.418,2.081 0.547,2.174 0.691,2.238C0.835,2.301 0.99,2.333 1.147,2.333H9.476L0.147,19.259C0.027,19.476 -0.021,19.727 0.009,19.975C0.039,20.222 0.146,20.453 0.314,20.634C0.425,20.751 0.559,20.843 0.706,20.905C0.853,20.968 1.011,20.999 1.171,20.997H14.287C14.438,20.997 14.584,20.935 14.691,20.826C14.798,20.717 14.858,20.568 14.858,20.414V17.537C14.854,17.236 14.962,16.944 15.16,16.721C15.358,16.498 15.631,16.36 15.925,16.334C16.081,16.323 16.238,16.346 16.386,16.399C16.533,16.453 16.668,16.538 16.782,16.647C16.897,16.756 16.988,16.889 17.05,17.035C17.112,17.182 17.144,17.34 17.143,17.5V20.417C17.143,20.571 17.204,20.72 17.311,20.829C17.418,20.938 17.563,21 17.715,21H30.822C30.982,21.002 31.14,20.971 31.287,20.908C31.434,20.846 31.568,20.753 31.679,20.637C31.849,20.457 31.958,20.226 31.99,19.978C32.021,19.729 31.974,19.478 31.855,19.259ZM17.143,12.248C17.143,12.558 17.023,12.854 16.809,13.073C16.594,13.292 16.304,13.415 16.001,13.415C15.698,13.415 15.407,13.292 15.193,13.073C14.979,12.854 14.858,12.558 14.858,12.248V9.915C14.858,9.606 14.979,9.309 15.193,9.09C15.407,8.872 15.698,8.749 16.001,8.749C16.304,8.749 16.594,8.872 16.809,9.09C17.023,9.309 17.143,9.606 17.143,9.915V12.248ZM17.143,4.666C17.143,4.975 17.023,5.272 16.809,5.491C16.594,5.71 16.304,5.833 16.001,5.833C15.698,5.833 15.407,5.71 15.193,5.491C14.979,5.272 14.858,4.975 14.858,4.666V3.5C14.858,3.19 14.979,2.894 15.193,2.675C15.407,2.456 15.698,2.333 16.001,2.333C16.304,2.333 16.594,2.456 16.809,2.675C17.023,2.894 17.143,3.19 17.143,3.5V4.666Z"/>
</svg>