<svg xmlns="http://www.w3.org/2000/svg" width="20" height="20" viewBox="0 0 20 20">
  <path fill="#2B2B2B" fill-rule="evenodd" d="M10,1.875C5.513,1.875 1.875,5.513 1.875,10C1.875,14.487 5.513,18.125 10,18.125C14.487,18.125 18.125,14.487 18.125,10C18.125,5.513 14.487,1.875 10,1.875ZM10.442,6.433C10.325,6.316 10.166,6.25 10,6.25C9.834,6.25 9.675,6.316 9.558,6.433L7.058,8.933C6.814,9.177 6.814,9.573 7.058,9.817C7.302,10.061 7.698,10.061 7.942,9.817L9.375,8.384L9.375,13.125C9.375,13.47 9.655,13.75 10,13.75C10.345,13.75 10.625,13.47 10.625,13.125L10.625,8.384L12.058,9.817C12.302,10.061 12.698,10.061 12.942,9.817C13.186,9.573 13.186,9.177 12.942,8.933L10.442,6.433Z"/>
</svg>